<svg xmlns="http://www.w3.org/2000/svg" width="16" height="16.002" viewBox="0 0 16 16.002"><path d="M13.976,16H11.952a.8.8,0,0,1,0-1.6h2.024a.409.409,0,0,0,.386-.4V12a.817.817,0,0,1,.77-.8A.837.837,0,0,1,16,12v2A2.04,2.04,0,0,1,13.976,16ZM3.952,16H1.928A1.968,1.968,0,0,1,0,14V12a.752.752,0,0,1,.771-.8.817.817,0,0,1,.771.8v2a.408.408,0,0,0,.385.4H3.952a.8.8,0,0,1,0,1.6ZM8,12a7.291,7.291,0,0,1-4.915-1.8A5.927,5.927,0,0,1,2.024,8.963a2.3,2.3,0,0,0-.289-.419c0-.051,0-.1-.1-.127V8.36s0,0,.593-.317l-.593.314a.924.924,0,0,1,0-.715l.057.03-.057-.031V7.584c.1-.031.1-.073.1-.127a2.334,2.334,0,0,0,.289-.419A5.931,5.931,0,0,1,3.085,5.8,7.292,7.292,0,0,1,8,4a7.168,7.168,0,0,1,4.82,1.8,5.924,5.924,0,0,1,1.06,1.235,2.335,2.335,0,0,0,.289.419c0,.03.031.056.058.08s.039.033.039.047v.057s-.024.014-.593.316l.593-.315a.916.916,0,0,1,0,.715L13.6,8c.65.345.668.356.669.356v.058c0,.014-.018.029-.039.048s-.057.05-.057.079a2.3,2.3,0,0,0-.289.419A5.92,5.92,0,0,1,12.82,10.2,7.167,7.167,0,0,1,8,12ZM8,5.6A5.814,5.814,0,0,0,4.145,7a2.961,2.961,0,0,0-.771.964L3.277,8l.1.038A2.924,2.924,0,0,0,4.145,9,5.82,5.82,0,0,0,8,10.4,5.555,5.555,0,0,0,11.76,9a6.768,6.768,0,0,0,.867-.965V7.963A6.782,6.782,0,0,0,11.76,7,5.55,5.55,0,0,0,8,5.6Zm0,4A1.6,1.6,0,1,1,8,6.4,1.555,1.555,0,0,1,9.542,8,1.556,1.556,0,0,1,8,9.6Zm7.133-4.8a.817.817,0,0,1-.77-.8V2a.409.409,0,0,0-.386-.4H11.952a.817.817,0,0,1-.771-.8.817.817,0,0,1,.771-.8h2.024A2.039,2.039,0,0,1,16,2V4A.837.837,0,0,1,15.133,4.8ZM.771,4.8A.752.752,0,0,1,0,4V2A1.967,1.967,0,0,1,1.928,0H3.952a.752.752,0,0,1,.77.8.752.752,0,0,1-.77.8H1.928a.409.409,0,0,0-.385.4V4A.817.817,0,0,1,.771,4.8Z"/></svg>