<svg xmlns="http://www.w3.org/2000/svg" width="16" height="14.401" viewBox="0 0 16 14.401">
  <path id="ico_settings_changepin" d="M14.458,14.4H12.82a2.692,2.692,0,0,1-1.639-.611,2.242,2.242,0,0,1-1.542.611H8a.8.8,0,0,1,0-1.6H9.639a.817.817,0,0,0,.771-.8V2.4a.817.817,0,0,0-.771-.8H8A.817.817,0,0,1,7.229.8.817.817,0,0,1,8,0H9.639a2.241,2.241,0,0,1,1.542.611A2.693,2.693,0,0,1,12.82,0h1.639a.817.817,0,0,1,.771.8.817.817,0,0,1-.771.8H12.82a.752.752,0,0,0-.771.8v.8h1.542A2.393,2.393,0,0,1,16,5.6V8.8a2.393,2.393,0,0,1-2.409,2.4H12.049V12a.752.752,0,0,0,.771.8h1.639a.8.8,0,0,1,0,1.6Zm-2.41-9.6V9.6h1.542a.837.837,0,0,0,.867-.8V5.6a.837.837,0,0,0-.867-.8ZM8.771,11.2H2.41A2.393,2.393,0,0,1,0,8.8V5.6A2.393,2.393,0,0,1,2.41,3.2H8.771V4.8H2.41a.753.753,0,0,0-.771.8V8.8a.752.752,0,0,0,.771.8H8.771v1.6Z"/>
</svg>
