<svg xmlns="http://www.w3.org/2000/svg" width="14.458" height="16" viewBox="0 0 14.458 16">
  <path id="ico_settings_logout" d="M7.229,16A7.291,7.291,0,0,1,2.12,13.851,7.722,7.722,0,0,1,0,8.7a7.552,7.552,0,0,1,2.12-5.1A.79.79,0,0,1,2.7,3.374a.79.79,0,0,1,.579.232.854.854,0,0,1,0,1.137A5.662,5.662,0,0,0,1.639,8.7a5.812,5.812,0,0,0,1.639,4.01,5.646,5.646,0,0,0,3.951,1.677,5.838,5.838,0,0,0,3.952-1.677A5.631,5.631,0,0,0,12.82,8.762a5.825,5.825,0,0,0-1.639-4.019.854.854,0,0,1,0-1.137.722.722,0,0,1,1.06,0,7.409,7.409,0,0,1,2.217,5.156,7.268,7.268,0,0,1-2.217,5.09A7.116,7.116,0,0,1,7.229,16Zm0-7.961a.752.752,0,0,1-.771-.8V.8A.752.752,0,0,1,7.229,0,.817.817,0,0,1,8,.8V7.238A.817.817,0,0,1,7.229,8.039Z"/>
</svg>
