<svg xmlns="http://www.w3.org/2000/svg" width="16.603" height="16.183"><defs><style>.a{fill:#2b2d33}</style></defs><path class="a" d="M11.527 16.183a8.714 8.714 0 0 1-2.571-.42 1.285 1.285 0 0 1-.16-.066l-.023-.014a24.447 24.447 0 0 1-3.783-2.47A13.1 13.1 0 0 1 .366 7.154a5.9 5.9 0 0 1 .183-4.571A5.07 5.07 0 0 1 2.895.324a1.437 1.437 0 0 1 .616-.141 1.556 1.556 0 0 1 1.292.736l1.68 2.673a1.5 1.5 0 0 1-.19 1.871c-.228.228-.552.511-.869.782-.137.115-.264.228-.376.328l-.088.078a11.24 11.24 0 0 0 4.7 4.537l1.082-1.375a1.6 1.6 0 0 1 2.1-.375c.606.371 1.507.917 2.326 1.371a1.576 1.576 0 0 1 .81 1.61 4.384 4.384 0 0 1-1.428 2.779 4.222 4.222 0 0 1-2.336.948 6.271 6.271 0 0 1-.687.037ZM3.484 1.836a3.514 3.514 0 0 0-1.506 1.487 4.351 4.351 0 0 0-.075 3.344 12.074 12.074 0 0 0 4.083 5.28 22 22 0 0 0 3.5 2.29 7.045 7.045 0 0 0 2.036.331 4.767 4.767 0 0 0 .522-.028 2.711 2.711 0 0 0 1.477-.578 2.793 2.793 0 0 0 .869-1.745 72.634 72.634 0 0 1-2.385-1.4h-.01l-1.11 1.416a1.557 1.557 0 0 1-1.206.6 1.467 1.467 0 0 1-.626-.15A12.861 12.861 0 0 1 3.533 7.4a1.542 1.542 0 0 1 .3-1.9c.191-.171.387-.345.618-.546s.441-.375.638-.562l-1.6-2.556ZM12.888 7.9a.816.816 0 0 1-.739-.458 6.393 6.393 0 0 0-1.2-1.753A6.281 6.281 0 0 0 9.189 4.5a.831.831 0 0 1 .75-1.483 8.034 8.034 0 0 1 2.19 1.5 8.176 8.176 0 0 1 1.51 2.183.837.837 0 0 1-.38 1.112.824.824 0 0 1-.371.088Zm2.887-.989a.843.843 0 0 1-.766-.5 10.294 10.294 0 0 0-5.15-4.834.827.827 0 0 1-.41-1.1.835.835 0 0 1 .758-.477.81.81 0 0 1 .343.075 12.075 12.075 0 0 1 5.983 5.674.82.82 0 0 1-.42 1.092.825.825 0 0 1-.339.07Z"/></svg>