<svg xmlns="http://www.w3.org/2000/svg" width="16" height="12.793"><path d="M13.6 12.793H2.4a2.4 2.4 0 0 1-2.4-2.4v-8A2.4 2.4 0 0 1 2.4 0h11.2A2.4 2.4 0 0 1 16 2.4v8a2.4 2.4 0 0 1-2.4 2.393ZM5.78 7.285l-4.114 3.428a.8.8 0 0 0 .733.48H13.6a.8.8 0 0 0 .732-.48L10.22 7.285l-.752.578a2.386 2.386 0 0 1-2.938 0Zm8.62-3.251L11.511 6.28 14.4 8.687Zm-12.8 0v4.653L4.489 6.28ZM2.4 1.6a.8.8 0 0 0-.723.466L7.514 6.6A.8.8 0 0 0 8 6.769a.772.772 0 0 0 .486-.169l5.837-4.537A.8.8 0 0 0 13.6 1.6Z" style="fill:#2b2d33"/></svg>