<svg xmlns="http://www.w3.org/2000/svg" width="16.603" height="16.183" viewBox="0 0 16.603 16.183">
  <g id="ico_settings_contacts" transform="translate(-145.551 -30.838)">
    <path id="Shape" d="M11.524,16a8.714,8.714,0,0,1-2.571-.42,1.285,1.285,0,0,1-.16-.066L8.77,15.5A24.447,24.447,0,0,1,4.987,13.03,13.1,13.1,0,0,1,.363,6.971,5.9,5.9,0,0,1,.546,2.4,5.07,5.07,0,0,1,2.892.141,1.437,1.437,0,0,1,3.508,0,1.556,1.556,0,0,1,4.8.736l1.68,2.673A1.5,1.5,0,0,1,6.29,5.28c-.228.228-.552.511-.869.782-.137.115-.264.228-.376.328l-.088.078a11.24,11.24,0,0,0,4.7,4.537L10.739,9.63a1.6,1.6,0,0,1,2.1-.375c.606.371,1.507.917,2.326,1.371a1.576,1.576,0,0,1,.81,1.61,4.384,4.384,0,0,1-1.428,2.779,4.222,4.222,0,0,1-2.336.948A6.271,6.271,0,0,1,11.524,16ZM3.481,1.653A3.514,3.514,0,0,0,1.975,3.14,4.351,4.351,0,0,0,1.9,6.484a12.074,12.074,0,0,0,4.083,5.28,22,22,0,0,0,3.5,2.29,7.045,7.045,0,0,0,2.036.331,4.767,4.767,0,0,0,.522-.028,2.711,2.711,0,0,0,1.477-.578,2.793,2.793,0,0,0,.869-1.745c-.79-.437-1.649-.954-2.385-1.4l-.01,0-1.11,1.416a1.557,1.557,0,0,1-1.206.6A1.467,1.467,0,0,1,9.05,12.5a12.861,12.861,0,0,1-5.52-5.283,1.542,1.542,0,0,1,.3-1.9c.191-.171.387-.345.618-.546s.441-.375.638-.562l-1.6-2.556Z" transform="translate(145.554 31.021)"/>
    <path id="Shape-2" data-name="Shape" d="M4.155,7.9a.816.816,0,0,1-.739-.458,6.393,6.393,0,0,0-1.2-1.753A6.281,6.281,0,0,0,.456,4.5a.831.831,0,0,1,.75-1.483,8.034,8.034,0,0,1,2.19,1.5A8.176,8.176,0,0,1,4.906,6.7a.837.837,0,0,1-.38,1.112A.824.824,0,0,1,4.155,7.9Zm2.887-.989a.843.843,0,0,1-.766-.5,10.294,10.294,0,0,0-5.15-4.834.827.827,0,0,1-.41-1.1A.835.835,0,0,1,1.474,0a.81.81,0,0,1,.343.075A12.075,12.075,0,0,1,7.8,5.749a.82.82,0,0,1-.42,1.092A.825.825,0,0,1,7.041,6.911Z" transform="translate(154.284 30.838)"/>
  </g>
</svg>
