<svg xmlns="http://www.w3.org/2000/svg" width="16" height="16.002"><path d="M8 16A8 8 0 0 1 2.341 2.343 8 8 0 1 1 8 16Zm-1.986-4.8a10.881 10.881 0 0 0 .694 1.843 8.131 8.131 0 0 0 .752 1.227c.026.038.054.075.087.115a6.244 6.244 0 0 0 .896 0 1.407 1.407 0 0 0 .087-.115 7.984 7.984 0 0 0 .752-1.227 10.054 10.054 0 0 0 .7-1.843Zm5.62 0a11.363 11.363 0 0 1-.926 2.557l-.019.052a6.468 6.468 0 0 0 2.853-2.609Zm-9.176 0a6.354 6.354 0 0 0 2.853 2.61l-.029-.052a12.393 12.393 0 0 1-.925-2.558Zm9.456-4.8c.06.621.087 1.115.087 1.6 0 .631-.05 1.216-.087 1.6H14.2a6.764 6.764 0 0 0 .2-1.6 6.771 6.771 0 0 0-.2-1.6h-2.287ZM5.7 6.4A11.823 11.823 0 0 0 5.6 8a11.813 11.813 0 0 0 .1 1.6h4.6a12.026 12.026 0 0 0 .1-1.6 12.034 12.034 0 0 0-.106-1.6Zm-3.9 0a6.408 6.408 0 0 0 0 3.2h2.287A14.017 14.017 0 0 1 4 8a14.027 14.027 0 0 1 .087-1.6Zm8.887-4.209.019.05a11.414 11.414 0 0 1 .928 2.559h1.908a6.464 6.464 0 0 0-2.853-2.609ZM8 1.6c-.151 0-.295 0-.453.016a1.9 1.9 0 0 0-.087.115 8.107 8.107 0 0 0-.752 1.228A10.965 10.965 0 0 0 6.014 4.8h3.972a10 10 0 0 0-.7-1.842A7.961 7.961 0 0 0 8.53 1.73a1.395 1.395 0 0 0-.087-.115A6.402 6.402 0 0 0 8 1.6Zm-2.689.592A6.349 6.349 0 0 0 2.458 4.8h1.9a12.455 12.455 0 0 1 .926-2.558Z" style="fill:#2b2d33"/></svg>